<?xml version="1.0" encoding="utf-8"?>
<!-- Generator: Adobe Illustrator 20.1.0, SVG Export Plug-In . SVG Version: 6.00 Build 0)  -->
<svg version="1.0" id="Isolation_Mode" xmlns="http://www.w3.org/2000/svg" xmlns:xlink="http://www.w3.org/1999/xlink" x="0px"
	 y="0px" viewBox="0 0 31 20" style="enable-background:new 0 0 31 20;" xml:space="preserve">
<style type="text/css">
	.st0{fill:#0066B2;}
	.st1{fill:#F9A533;}
</style>
<g>
	<g>
		<g>
			<polygon class="st0" points="13.4,14.9 10.9,14.9 12.5,5.1 15,5.1 			"/>
			<path class="st0" d="M8.8,5.1l-2.4,6.7l-0.3-1.4v0L5.2,6c0,0-0.1-0.9-1.2-0.9H0l0,0.2c0,0,1.2,0.3,2.6,1.1l2.2,8.4h2.6l4-9.7H8.8
				z"/>
			<path class="st0" d="M28.7,14.9H31l-2-9.7h-2c-0.9,0-1.2,0.7-1.2,0.7l-3.8,9h2.6l0.5-1.4h3.2L28.7,14.9z M25.9,11.4l1.3-3.6
				l0.7,3.6H25.9z"/>
			<path class="st0" d="M22.2,7.5l0.4-2.1c0,0-1.1-0.4-2.3-0.4C19,5,16,5.5,16,8.2c0,2.5,3.5,2.5,3.5,3.9c0,1.3-3.1,1.1-4.2,0.3
				L15,14.5c0,0,1.1,0.5,2.9,0.5c1.7,0,4.3-0.9,4.3-3.3c0-2.5-3.5-2.8-3.5-3.9C18.7,6.7,21.1,6.9,22.2,7.5z"/>
		</g>
		<path class="st1" d="M6.1,10.4L5.2,6c0,0-0.1-0.9-1.2-0.9H0l0,0.2c0,0,1.9,0.4,3.8,1.9C5.5,8.6,6.1,10.4,6.1,10.4z"/>
	</g>
</g>
</svg>
