<?xml version="1.0" encoding="utf-8"?>
<!-- Generator: Adobe Illustrator 20.1.0, SVG Export Plug-In . SVG Version: 6.00 Build 0)  -->
<svg version="1.0" id="Isolation_Mode" xmlns="http://www.w3.org/2000/svg" xmlns:xlink="http://www.w3.org/1999/xlink" x="0px"
	 y="0px" viewBox="0 0 31 20" style="enable-background:new 0 0 31 20;" xml:space="preserve">
<style type="text/css">
	.st0{fill-rule:evenodd;clip-rule:evenodd;fill:#FBB231;}
	.st1{fill-rule:evenodd;clip-rule:evenodd;fill:#EC1C2E;}
	.st2{fill-rule:evenodd;clip-rule:evenodd;fill:#FFFFFF;}
	.st3{fill:none;stroke:#FFFFFF;stroke-width:0.216;stroke-miterlimit:2.6131;}
</style>
<g>
	<polygon class="st0" points="21.4,18.9 21.8,18.9 22.3,18.8 22.8,18.8 23.2,18.7 23.6,18.6 24.1,18.5 24.5,18.3 24.9,18.2 25.3,18 
		25.7,17.8 26.1,17.6 26.4,17.3 26.8,17.1 27.1,16.8 27.5,16.5 27.8,16.2 28.1,15.9 28.4,15.6 28.6,15.2 28.9,14.9 29.1,14.5 
		29.3,14.1 29.5,13.7 29.7,13.3 29.9,12.9 30,12.5 30.1,12.1 30.2,11.6 30.3,11.2 30.4,10.7 30.4,10.3 30.4,9.8 30.4,9.4 30.4,8.9 
		30.3,8.4 30.2,8 30.1,7.6 30,7.1 29.9,6.7 29.7,6.3 29.5,5.9 29.3,5.5 29.1,5.1 28.9,4.8 28.6,4.4 28.4,4.1 28.1,3.8 27.8,3.4 
		27.5,3.1 27.1,2.9 26.8,2.6 26.4,2.3 26.1,2.1 25.7,1.9 25.3,1.7 24.9,1.5 24.5,1.3 24.1,1.2 23.6,1.1 23.2,1 22.8,0.9 22.3,0.8 
		21.8,0.8 21.4,0.8 20.9,0.8 20.5,0.8 20,0.9 19.6,1 19.1,1.1 18.7,1.2 18.3,1.3 17.9,1.5 17.5,1.7 17.1,1.9 16.7,2.1 16.3,2.3 
		16,2.6 15.6,2.9 15.3,3.1 15,3.4 14.7,3.8 14.4,4.1 14.1,4.4 13.9,4.8 13.7,5.1 13.4,5.5 13.2,5.9 13.1,6.3 12.9,6.7 12.8,7.1 
		12.6,7.6 12.5,8 12.5,8.4 12.4,8.9 12.4,9.4 12.4,9.8 12.4,10.3 12.4,10.7 12.5,11.2 12.5,11.6 12.6,12.1 12.8,12.5 12.9,12.9 
		13.1,13.3 13.2,13.7 13.4,14.1 13.7,14.5 13.9,14.9 14.1,15.2 14.4,15.6 14.7,15.9 15,16.2 15.3,16.5 15.6,16.8 16,17.1 16.3,17.3 
		16.7,17.6 17.1,17.8 17.5,18 17.9,18.2 18.3,18.3 18.7,18.5 19.1,18.6 19.6,18.7 20,18.8 20.5,18.8 20.9,18.9 21.4,18.9 21.4,18.9 
			"/>
	<polygon class="st1" points="9.3,18.9 9.7,18.9 10.2,18.8 10.7,18.8 11.1,18.7 11.5,18.6 12,18.5 12.4,18.3 12.8,18.2 13.2,18 
		13.6,17.8 14,17.6 14.3,17.3 14.7,17.1 15,16.8 15.3,16.5 15.7,16.2 16,15.9 16.2,15.6 16.5,15.2 16.8,14.9 17,14.5 17.2,14.1 
		17.4,13.7 17.6,13.3 17.8,12.9 17.9,12.5 18,12.1 18.1,11.6 18.2,11.2 18.3,10.7 18.3,10.3 18.3,9.8 18.3,9.4 18.3,8.9 18.2,8.4 
		18.1,8 18,7.6 17.9,7.1 17.8,6.7 17.6,6.3 17.4,5.9 17.2,5.5 17,5.1 16.8,4.8 16.5,4.4 16.2,4.1 16,3.8 15.7,3.4 15.3,3.1 15,2.9 
		14.7,2.6 14.3,2.3 14,2.1 13.6,1.9 13.2,1.7 12.8,1.5 12.4,1.3 12,1.2 11.5,1.1 11.1,1 10.7,0.9 10.2,0.8 9.7,0.8 9.3,0.8 8.8,0.8 
		8.4,0.8 7.9,0.9 7.5,1 7,1.1 6.6,1.2 6.2,1.3 5.8,1.5 5.4,1.7 5,1.9 4.6,2.1 4.2,2.3 3.9,2.6 3.5,2.9 3.2,3.1 2.9,3.4 2.6,3.8 
		2.3,4.1 2,4.4 1.8,4.8 1.5,5.1 1.3,5.5 1.1,5.9 0.9,6.3 0.8,6.7 0.6,7.1 0.5,7.6 0.4,8 0.3,8.4 0.3,8.9 0.2,9.4 0.2,9.8 0.2,10.3 
		0.3,10.7 0.3,11.2 0.4,11.6 0.5,12.1 0.6,12.5 0.8,12.9 0.9,13.3 1.1,13.7 1.3,14.1 1.5,14.5 1.8,14.9 2,15.2 2.3,15.6 2.6,15.9 
		2.9,16.2 3.2,16.5 3.5,16.8 3.9,17.1 4.2,17.3 4.6,17.6 5,17.8 5.4,18 5.8,18.2 6.2,18.3 6.6,18.5 7,18.6 7.5,18.7 7.9,18.8 
		8.4,18.8 8.8,18.9 9.3,18.9 9.3,18.9 	"/>
	<polygon class="st0" points="14.3,4.3 19.1,4.3 19.1,3.8 14.7,3.8 14.3,4.3 14.3,4.3 	"/>
	<polygon class="st0" points="13.5,5.4 19.1,5.4 19.1,4.9 13.8,4.9 13.5,5.4 13.5,5.4 	"/>
	<polygon class="st0" points="13,6.4 19.1,6.4 19.1,6 13.2,6 13,6.4 13,6.4 	"/>
	<polygon class="st0" points="12.6,7.5 19.1,7.5 19.1,7 12.8,7 12.6,7.5 12.6,7.5 	"/>
	<polygon class="st0" points="12.9,12.8 19.1,12.8 19.1,12.3 12.7,12.3 12.9,12.8 12.9,12.8 	"/>
	<polygon class="st0" points="13.3,13.9 19.1,13.9 19.1,13.4 13.1,13.4 13.3,13.9 13.3,13.9 	"/>
	<polygon class="st0" points="14,15 19.1,15 19.1,14.5 13.7,14.5 14,15 14,15 	"/>
	<polygon class="st0" points="14.9,16.1 19.1,16.1 19.1,15.6 14.4,15.6 14.9,16.1 14.9,16.1 	"/>
	<polygon class="st0" points="12.4,8.6 19.1,8.6 19.1,8.1 12.5,8.1 12.4,8.6 12.4,8.6 	"/>
	<polygon class="st0" points="16.5,11.7 19,11.7 19,11.2 16.6,11.2 16.5,11.7 16.5,11.7 	"/>
	<polygon class="st0" points="16.7,10.6 19,10.6 19,10.1 16.8,10.1 16.7,10.6 16.7,10.6 	"/>
	<polygon class="st0" points="12.3,10.1 12.9,10.1 12.9,10.6 12.3,10.6 12.3,10.1 12.3,10.1 	"/>
	<polygon class="st2" points="11,9.5 11,9.5 10.9,9.5 10.9,9.5 10.9,9.5 10.8,9.5 10.8,9.5 10.8,9.5 10.7,9.5 10.7,9.5 10.6,9.5 
		10.6,9.5 10.5,9.5 10.4,9.5 10.4,9.5 10.3,9.5 10.2,9.5 10.1,9.5 10.1,9.5 10,9.5 10,9.6 9.9,9.6 9.9,9.6 9.9,9.6 9.8,9.7 9.8,9.7 
		9.8,9.7 9.8,9.8 9.8,9.8 9.8,9.8 9.8,9.9 9.9,9.9 9.9,10 9.9,10 10,10.1 10.1,10.1 10.2,10.1 10.3,10.2 10.4,10.2 10.5,10.2 
		10.6,10.3 10.7,10.3 10.8,10.4 10.8,10.5 10.9,10.6 11,10.7 11,10.8 11,11 11,11.2 11,11.3 10.9,11.4 10.9,11.6 10.8,11.7 
		10.7,11.7 10.7,11.8 10.6,11.9 10.5,11.9 10.4,12 10.3,12 10.2,12.1 10.1,12.1 10,12.1 9.9,12.1 9.8,12.1 9.7,12.1 9.5,12.1 
		9.4,12.1 9.3,12.1 9.2,12.1 9.1,12.1 9,12.1 9,12.1 8.9,12.1 8.8,12.1 8.8,12.1 8.7,12.1 8.7,12.1 8.6,12 8.6,12 8.5,12 8.5,12 
		8.6,11.3 8.6,11.3 8.7,11.3 8.7,11.3 8.8,11.3 8.8,11.4 8.9,11.4 8.9,11.4 9,11.4 9.1,11.4 9.2,11.4 9.3,11.4 9.3,11.4 9.4,11.4 
		9.5,11.4 9.6,11.4 9.7,11.4 9.8,11.4 9.9,11.4 9.9,11.4 10,11.3 10,11.3 10,11.2 10,11.2 10,11.1 10,11.1 10,11 10,10.9 9.9,10.9 
		9.8,10.8 9.7,10.8 9.6,10.7 9.4,10.7 9.3,10.6 9.2,10.6 9.1,10.5 9,10.4 8.9,10.3 8.9,10.1 8.8,10 8.9,9.8 8.9,9.7 8.9,9.5 
		8.9,9.4 9,9.3 9,9.3 9.1,9.2 9.1,9.1 9.2,9 9.3,9 9.4,8.9 9.5,8.9 9.6,8.8 9.8,8.8 9.9,8.8 10.1,8.8 10.2,8.8 10.4,8.8 10.5,8.8 
		10.6,8.8 10.6,8.8 10.7,8.8 10.8,8.8 10.9,8.8 10.9,8.8 11,8.8 11,8.8 11,8.8 11.1,8.8 11.1,8.8 11.1,8.8 11.2,8.9 11.2,8.9 
		11,9.5 11,9.5 	"/>
	<polyline class="st3" points="11,9.5 11,9.5 11,9.5 10.9,9.5 10.9,9.5 10.9,9.5 10.8,9.5 10.8,9.5 10.8,9.5 10.7,9.5 10.7,9.5 
		10.6,9.5 10.6,9.5 10.5,9.5 10.4,9.5 10.4,9.5 10.3,9.5 10.2,9.5 10.2,9.5 10.1,9.5 10.1,9.5 10,9.5 10,9.6 9.9,9.6 9.9,9.6 
		9.9,9.6 9.8,9.7 9.8,9.7 9.8,9.7 9.8,9.8 9.8,9.8 9.8,9.8 9.8,9.9 9.9,9.9 9.9,10 9.9,10 9.9,10 10,10.1 10.1,10.1 10.2,10.1 
		10.3,10.2 10.4,10.2 10.5,10.2 10.6,10.3 10.7,10.3 10.8,10.4 10.8,10.5 10.9,10.6 11,10.7 11,10.8 11,11 11,11.2 11,11.2 11,11.3 
		10.9,11.4 10.9,11.6 10.8,11.7 10.7,11.7 10.7,11.8 10.6,11.9 10.5,11.9 10.4,12 10.3,12 10.2,12.1 10.1,12.1 10,12.1 9.9,12.1 
		9.8,12.1 9.7,12.1 9.7,12.1 9.5,12.1 9.4,12.1 9.3,12.1 9.2,12.1 9.1,12.1 9,12.1 9,12.1 8.9,12.1 8.8,12.1 8.8,12.1 8.7,12.1 
		8.7,12.1 8.6,12 8.6,12 8.5,12 8.5,12 8.6,11.3 8.6,11.3 8.6,11.3 8.7,11.3 8.7,11.3 8.8,11.3 8.8,11.4 8.9,11.4 8.9,11.4 9,11.4 
		9.1,11.4 9.2,11.4 9.3,11.4 9.3,11.4 9.4,11.4 9.5,11.4 9.6,11.4 9.7,11.4 9.7,11.4 9.8,11.4 9.9,11.4 9.9,11.4 10,11.3 10,11.3 
		10,11.2 10,11.2 10,11.1 10,11.1 10,11.1 10,11 10,10.9 9.9,10.9 9.8,10.8 9.7,10.8 9.6,10.7 9.4,10.7 9.3,10.6 9.2,10.6 9.1,10.5 
		9,10.4 8.9,10.3 8.9,10.1 8.8,10 8.9,9.8 8.9,9.8 8.9,9.7 8.9,9.5 8.9,9.4 9,9.3 9,9.3 9.1,9.2 9.1,9.1 9.2,9 9.3,9 9.4,8.9 
		9.5,8.9 9.6,8.8 9.8,8.8 9.9,8.8 10.1,8.8 10.2,8.8 10.2,8.8 10.4,8.8 10.5,8.8 10.6,8.8 10.6,8.8 10.7,8.8 10.8,8.8 10.9,8.8 
		10.9,8.8 11,8.8 11,8.8 11,8.8 11.1,8.8 11.1,8.8 11.1,8.8 11.2,8.9 11.2,8.9 11,9.5 	"/>
	<polygon class="st2" points="11.8,8.1 12.6,8.1 12.5,8.8 13,8.8 12.9,9.5 12.3,9.5 12,11.2 12,11.3 12.1,11.3 12.1,11.4 12.1,11.4 
		12.2,11.4 12.2,11.4 12.3,11.5 12.4,11.5 12.4,11.5 12.5,11.5 12.6,11.4 12.6,11.4 12.7,11.4 12.7,11.4 12.7,11.4 12.7,11.4 
		12.6,12 12.6,12 12.6,12 12.5,12 12.5,12 12.5,12 12.5,12 12.4,12 12.4,12.1 12.4,12.1 12.4,12.1 12.3,12.1 12.3,12.1 12.2,12.1 
		12.2,12.1 12.1,12.1 12.1,12.1 11.9,12.1 11.7,12.1 11.6,12.1 11.5,12.1 11.5,12 11.4,12 11.3,12 11.3,12 11.2,11.9 11.2,11.9 
		11.2,11.8 11.2,11.8 11.2,11.7 11.2,11.6 11.2,11.6 11.2,11.5 11.2,11.4 11.8,8.1 11.8,8.1 	"/>
	<polyline class="st3" points="11.8,8.1 12.6,8.1 12.5,8.8 13,8.8 12.9,9.5 12.3,9.5 12,11.2 12,11.2 12,11.3 12.1,11.3 12.1,11.4 
		12.1,11.4 12.2,11.4 12.2,11.4 12.3,11.5 12.4,11.5 12.4,11.5 12.4,11.5 12.5,11.5 12.6,11.4 12.6,11.4 12.7,11.4 12.7,11.4 
		12.7,11.4 12.7,11.4 12.6,12 12.6,12 12.6,12 12.6,12 12.5,12 12.5,12 12.5,12 12.5,12 12.4,12 12.4,12.1 12.4,12.1 12.4,12.1 
		12.3,12.1 12.3,12.1 12.2,12.1 12.2,12.1 12.1,12.1 12.1,12.1 11.9,12.1 11.9,12.1 11.7,12.1 11.6,12.1 11.5,12.1 11.5,12 11.4,12 
		11.3,12 11.3,12 11.2,11.9 11.2,11.9 11.2,11.8 11.2,11.8 11.2,11.7 11.2,11.6 11.2,11.6 11.2,11.5 11.2,11.4 11.8,8.1 	"/>
	<polyline class="st3" points="13.7,10.7 13.7,10.7 13.6,10.7 13.6,10.8 13.7,10.8 13.7,10.9 13.7,11 13.7,11 13.7,11.1 13.8,11.1 
		13.8,11.2 13.9,11.2 13.9,11.3 14,11.3 14,11.3 14.1,11.4 14.1,11.4 14.2,11.4 14.2,11.4 14.3,11.4 14.4,11.4 14.4,11.4 14.5,11.4 
		14.6,11.4 14.7,11.4 14.8,11.4 14.8,11.4 14.9,11.4 15,11.4 15.1,11.4 15.2,11.4 15.3,11.3 15.4,11.3 15.4,11.2 15.5,11.2 
		15.4,11.9 15.4,11.9 15.4,12 15.3,12 15.3,12 15.2,12 15.2,12 15.1,12.1 15.1,12.1 15,12.1 15,12.1 14.9,12.1 14.8,12.1 14.8,12.1 
		14.7,12.1 14.6,12.1 14.5,12.1 14.4,12.1 14.4,12.1 14.3,12.1 14.1,12.1 14,12.1 13.8,12 13.7,12 13.5,11.9 13.4,11.9 13.2,11.8 
		13.1,11.7 13,11.5 12.9,11.4 12.9,11.2 12.8,11.1 12.8,10.8 12.8,10.6 12.8,10.4 12.8,10.4 12.8,10.3 12.8,10.2 12.8,10 12.9,9.9 
		12.9,9.8 13,9.7 13,9.5 13.1,9.4 13.2,9.3 13.3,9.2 13.5,9.1 13.6,9 13.8,8.9 14,8.8 14.2,8.8 14.5,8.8 14.5,8.8 14.6,8.8 
		14.7,8.8 14.8,8.8 15,8.8 15.1,8.9 15.2,8.9 15.3,9 15.4,9.1 15.5,9.2 15.6,9.3 15.6,9.5 15.7,9.6 15.7,9.8 15.7,10 15.7,10.3 
		15.6,10.5 15.6,10.7 13.4,10.7 13.5,10.1 14.9,10.1 14.9,10.1 14.9,10 14.9,9.9 14.9,9.9 14.9,9.8 14.8,9.8 14.8,9.7 14.8,9.7 
		14.8,9.6 14.7,9.6 14.7,9.6 14.6,9.5 14.6,9.5 14.6,9.5 14.5,9.5 14.4,9.5 14.4,9.5 14.4,9.5 14.3,9.5 14.3,9.5 14.2,9.5 14.2,9.5 
		14.1,9.5 14.1,9.6 14,9.6 14,9.6 14,9.7 13.9,9.7 13.9,9.8 13.9,9.8 13.8,9.9 13.8,9.9 13.8,10 13.8,10.1 13.7,10.7 	"/>
	<polygon class="st2" points="20.9,9 20.9,9 20.9,9 20.8,9 20.8,8.9 20.7,8.9 20.7,8.9 20.6,8.9 20.6,8.9 20.5,8.9 20.4,8.8 
		20.4,8.8 20.3,8.8 20.2,8.8 20.2,8.8 20.1,8.8 20,8.8 19.9,8.8 19.9,8.8 19.8,8.8 19.7,8.8 19.6,8.9 19.5,8.9 19.4,8.9 19.4,9 
		19.3,9.1 19.2,9.1 19.1,9.2 19,9.4 19,9.5 18.9,9.6 18.9,9.8 18.8,10 18.8,10.1 18.8,10.2 18.8,10.3 18.8,10.4 18.8,10.5 
		18.8,10.6 18.8,10.7 18.9,10.8 18.9,10.9 19,11 19,11 19.1,11.1 19.2,11.2 19.3,11.2 19.4,11.3 19.5,11.3 19.5,11.3 19.6,11.3 
		19.6,11.3 19.7,11.3 19.8,11.3 19.8,11.3 19.9,11.3 20,11.3 20.1,11.3 20.2,11.3 20.2,11.3 20.3,11.2 20.4,11.2 20.5,11.2 
		20.5,11.1 20.6,11.1 20.4,11.9 20.4,11.9 20.4,11.9 20.4,11.9 20.4,11.9 20.3,12 20.3,12 20.2,12 20.2,12 20.1,12.1 20,12.1 
		19.9,12.1 19.8,12.1 19.7,12.1 19.6,12.1 19.4,12.1 19.2,12.1 19.1,12.1 19,12 18.8,12 18.7,11.9 18.5,11.9 18.4,11.8 18.3,11.7 
		18.2,11.5 18.1,11.4 18,11.3 17.9,11.1 17.9,10.9 17.8,10.7 17.8,10.5 17.8,10.2 17.9,10 17.9,9.9 17.9,9.7 17.9,9.6 18,9.5 
		18,9.4 18,9.3 18.1,9.2 18.1,9.1 18.2,9 18.2,8.9 18.3,8.8 18.3,8.8 18.4,8.7 18.4,8.6 18.5,8.5 18.6,8.5 18.6,8.4 18.7,8.4 
		18.8,8.3 18.9,8.3 18.9,8.2 19,8.2 19.1,8.1 19.2,8.1 19.3,8.1 19.4,8 19.5,8 19.6,8 19.7,8 19.8,8 19.9,8 20,8 20.1,8 20.2,8 
		20.3,8 20.4,8 20.5,8 20.6,8 20.6,8 20.7,8.1 20.8,8.1 20.9,8.1 20.9,8.1 21,8.1 21,8.2 21,8.2 21.1,8.2 21.1,8.2 20.9,9 20.9,9 	
		"/>
	<polyline class="st3" points="20.9,9 20.9,9 20.9,9 20.9,9 20.8,9 20.8,8.9 20.7,8.9 20.7,8.9 20.6,8.9 20.6,8.9 20.5,8.9 
		20.4,8.8 20.4,8.8 20.3,8.8 20.2,8.8 20.2,8.8 20.1,8.8 20,8.8 20,8.8 19.9,8.8 19.9,8.8 19.8,8.8 19.7,8.8 19.6,8.9 19.5,8.9 
		19.4,8.9 19.4,9 19.3,9.1 19.2,9.1 19.1,9.2 19,9.4 19,9.5 18.9,9.6 18.9,9.8 18.8,10 18.8,10 18.8,10.1 18.8,10.2 18.8,10.3 
		18.8,10.4 18.8,10.5 18.8,10.6 18.8,10.7 18.9,10.8 18.9,10.9 19,11 19,11 19.1,11.1 19.2,11.2 19.3,11.2 19.4,11.3 19.5,11.3 
		19.5,11.3 19.5,11.3 19.6,11.3 19.6,11.3 19.7,11.3 19.8,11.3 19.8,11.3 19.9,11.3 20,11.3 20.1,11.3 20.2,11.3 20.2,11.3 
		20.3,11.2 20.4,11.2 20.5,11.2 20.5,11.1 20.6,11.1 20.4,11.9 20.4,11.9 20.4,11.9 20.4,11.9 20.4,11.9 20.4,11.9 20.3,12 20.3,12 
		20.2,12 20.2,12 20.1,12.1 20,12.1 19.9,12.1 19.8,12.1 19.7,12.1 19.6,12.1 19.4,12.1 19.2,12.1 19.2,12.1 19.1,12.1 19,12 
		18.8,12 18.7,11.9 18.5,11.9 18.4,11.8 18.3,11.7 18.2,11.5 18.1,11.4 18,11.3 17.9,11.1 17.9,10.9 17.8,10.7 17.8,10.5 17.8,10.2 
		17.9,10 17.9,10 17.9,9.9 17.9,9.7 17.9,9.6 18,9.5 18,9.4 18,9.3 18.1,9.2 18.1,9.1 18.2,9 18.2,8.9 18.3,8.8 18.3,8.8 18.4,8.7 
		18.4,8.6 18.5,8.5 18.6,8.5 18.6,8.4 18.7,8.4 18.8,8.3 18.9,8.3 18.9,8.2 19,8.2 19.1,8.1 19.2,8.1 19.3,8.1 19.4,8 19.5,8 
		19.6,8 19.7,8 19.8,8 19.9,8 20,8 20,8 20.1,8 20.2,8 20.3,8 20.4,8 20.5,8 20.6,8 20.6,8 20.7,8.1 20.8,8.1 20.9,8.1 20.9,8.1 
		21,8.1 21,8.2 21,8.2 21.1,8.2 21.1,8.2 20.9,9 	"/>
	<polygon class="st2" points="28.4,12.1 27.6,12.1 27.7,11.8 27.7,11.7 27.6,11.8 27.6,11.9 27.5,11.9 27.4,11.9 27.4,12 27.3,12 
		27.3,12 27.2,12.1 27.2,12.1 27.1,12.1 27.1,12.1 27,12.1 26.9,12.1 26.9,12.2 26.8,12.2 26.7,12.2 26.6,12.1 26.4,12.1 26.3,12.1 
		26.2,12 26.1,11.9 26,11.8 25.9,11.7 25.8,11.6 25.8,11.4 25.7,11.3 25.7,11.1 25.7,11 25.6,10.8 25.6,10.7 25.7,10.5 25.7,10.3 
		25.7,10.2 25.8,10 25.9,9.8 25.9,9.7 26,9.6 26.1,9.4 26.2,9.3 26.3,9.2 26.4,9.1 26.5,9.1 26.6,9 26.7,8.9 26.9,8.9 27,8.9 
		27.1,8.8 27.2,8.8 27.3,8.8 27.4,8.9 27.5,8.9 27.6,8.9 27.6,8.9 27.7,8.9 27.8,9 27.8,9 27.9,9 27.9,9.1 27.9,9.1 28,9.2 28,9.2 
		28,9.2 28.1,9.3 28.1,9.3 28.1,9.3 28.3,8.1 29.1,8.1 28.4,12.1 28.4,12.1 	"/>
	<polyline class="st3" points="28.4,12.1 27.6,12.1 27.7,11.8 27.7,11.7 27.7,11.7 27.6,11.8 27.6,11.9 27.5,11.9 27.4,11.9 
		27.4,12 27.3,12 27.3,12 27.2,12.1 27.2,12.1 27.1,12.1 27.1,12.1 27,12.1 26.9,12.1 26.9,12.2 26.8,12.2 26.7,12.2 26.7,12.2 
		26.6,12.1 26.4,12.1 26.3,12.1 26.2,12 26.1,11.9 26,11.8 25.9,11.7 25.8,11.6 25.8,11.4 25.7,11.3 25.7,11.1 25.7,11 25.6,10.8 
		25.6,10.7 25.7,10.5 25.7,10.3 25.7,10.3 25.7,10.2 25.8,10 25.9,9.8 25.9,9.7 26,9.6 26.1,9.4 26.2,9.3 26.3,9.2 26.4,9.1 
		26.5,9.1 26.6,9 26.7,8.9 26.9,8.9 27,8.9 27.1,8.8 27.2,8.8 27.2,8.8 27.3,8.8 27.4,8.9 27.5,8.9 27.6,8.9 27.6,8.9 27.7,8.9 
		27.8,9 27.8,9 27.9,9 27.9,9.1 27.9,9.1 28,9.2 28,9.2 28,9.2 28.1,9.3 28.1,9.3 28.1,9.3 28.3,8.1 29.1,8.1 28.4,12.1 	"/>
	<polygon class="st0" points="27.1,11.4 27.1,11.4 27.2,11.3 27.3,11.3 27.4,11.3 27.4,11.3 27.5,11.2 27.5,11.2 27.6,11.1 27.6,11 
		27.7,11 27.7,10.9 27.8,10.8 27.8,10.8 27.8,10.7 27.8,10.6 27.9,10.5 27.9,10.4 27.9,10.3 27.9,10.3 27.9,10.2 27.9,10.1 27.9,10 
		27.8,9.9 27.8,9.9 27.8,9.8 27.7,9.8 27.7,9.7 27.7,9.7 27.6,9.6 27.5,9.6 27.5,9.6 27.4,9.6 27.3,9.6 27.3,9.6 27.2,9.6 27.1,9.7 
		27.1,9.7 27,9.7 27,9.8 26.9,9.8 26.9,9.9 26.8,10 26.8,10.1 26.7,10.1 26.7,10.2 26.7,10.3 26.7,10.4 26.6,10.5 26.6,10.6 
		26.6,10.8 26.7,10.9 26.7,11.1 26.8,11.2 26.8,11.3 26.9,11.3 27.1,11.4 27.1,11.4 	"/>
	<polygon class="st2" points="8.3,11.4 8.2,12.1 7.4,12.1 7.5,12 7.5,11.9 7.5,11.8 7.5,11.7 7.5,11.8 7.4,11.8 7.4,11.9 7.3,11.9 
		7.2,12 7.1,12 7.1,12 7,12.1 6.9,12.1 6.8,12.1 6.7,12.1 6.6,12.2 6.5,12.2 6.4,12.2 6.4,12.2 6.3,12.1 6.2,12.1 6.1,12.1 6,12 
		5.9,12 5.8,11.9 5.8,11.9 5.7,11.8 5.7,11.8 5.7,11.7 5.6,11.6 5.6,11.6 5.6,11.5 5.6,11.4 5.6,11.4 5.6,11.3 5.6,11.2 5.6,11.1 
		5.6,11 5.6,10.9 5.6,10.8 5.7,10.7 5.8,10.6 5.8,10.5 5.9,10.4 6,10.4 6.1,10.3 6.1,10.3 6.2,10.2 6.3,10.2 6.4,10.1 6.5,10.1 
		6.6,10.1 6.6,10.1 6.7,10.1 6.7,10.1 6.7,10.1 6.8,10.1 6.8,10.1 6.8,10.1 6.9,10.1 6.9,10 7,10 7.1,10 7.1,10 7.1,10 7.2,10 
		7.2,10 7.3,10 7.3,10 7.4,10 7.5,10 7.5,10 7.6,10 7.6,10 7.7,10 7.7,10 7.7,10 7.7,10 7.7,9.9 7.7,9.8 7.7,9.8 7.7,9.7 7.7,9.7 
		7.6,9.6 7.5,9.6 7.5,9.5 7.4,9.5 7.3,9.5 7.2,9.5 7.2,9.5 7.1,9.5 7,9.5 6.9,9.5 6.8,9.5 6.7,9.5 6.6,9.6 6.5,9.6 6.4,9.6 6.3,9.6 
		6.2,9.6 6.2,9.6 6.1,9.6 6.1,9.7 6,9.7 6.3,8.9 6.3,8.9 6.4,8.9 6.5,8.9 6.5,8.9 6.6,8.8 6.7,8.8 6.8,8.8 6.9,8.8 6.9,8.8 7,8.8 
		7.1,8.8 7.2,8.8 7.3,8.8 7.4,8.8 7.5,8.8 7.6,8.8 7.7,8.8 7.8,8.8 7.9,8.9 8,8.9 8.1,8.9 8.2,9 8.3,9 8.4,9.1 8.4,9.1 8.5,9.2 
		8.6,9.3 8.6,9.4 8.6,9.5 8.7,9.6 8.7,9.7 8.6,9.8 8.3,11.4 8.3,11.4 	"/>
	<polyline class="st3" points="8.3,11.4 8.2,12.1 7.4,12.1 7.4,12.1 7.5,12 7.5,11.9 7.5,11.8 7.5,11.7 7.5,11.7 7.5,11.8 7.4,11.8 
		7.4,11.9 7.3,11.9 7.2,12 7.1,12 7.1,12 7,12.1 6.9,12.1 6.8,12.1 6.7,12.1 6.6,12.2 6.5,12.2 6.4,12.2 6.4,12.2 6.3,12.1 
		6.3,12.1 6.2,12.1 6.1,12.1 6,12 5.9,12 5.8,11.9 5.8,11.9 5.7,11.8 5.7,11.8 5.7,11.7 5.6,11.6 5.6,11.6 5.6,11.5 5.6,11.4 
		5.6,11.4 5.6,11.3 5.6,11.2 5.6,11.2 5.6,11.1 5.6,11 5.6,10.9 5.6,10.8 5.7,10.7 5.8,10.6 5.8,10.5 5.9,10.4 6,10.4 6.1,10.3 
		6.1,10.3 6.2,10.2 6.3,10.2 6.4,10.1 6.5,10.1 6.6,10.1 6.6,10.1 6.6,10.1 6.7,10.1 6.7,10.1 6.7,10.1 6.8,10.1 6.8,10.1 6.8,10.1 
		6.9,10.1 6.9,10 7,10 7.1,10 7.1,10 7.1,10 7.2,10 7.2,10 7.3,10 7.3,10 7.3,10 7.4,10 7.5,10 7.5,10 7.6,10 7.6,10 7.7,10 7.7,10 
		7.7,10 7.7,10 7.7,10 7.7,9.9 7.7,9.8 7.7,9.8 7.7,9.8 7.7,9.7 7.7,9.7 7.6,9.6 7.5,9.6 7.5,9.5 7.4,9.5 7.3,9.5 7.3,9.5 7.2,9.5 
		7.2,9.5 7.1,9.5 7,9.5 6.9,9.5 6.8,9.5 6.7,9.5 6.6,9.6 6.5,9.6 6.4,9.6 6.3,9.6 6.2,9.6 6.2,9.6 6.1,9.6 6.1,9.7 6,9.7 6.3,8.9 
		6.3,8.9 6.3,8.9 6.4,8.9 6.5,8.9 6.5,8.9 6.6,8.8 6.7,8.8 6.8,8.8 6.9,8.8 6.9,8.8 7,8.8 7.1,8.8 7.2,8.8 7.3,8.8 7.4,8.8 7.5,8.8 
		7.6,8.8 7.6,8.8 7.7,8.8 7.8,8.8 7.9,8.9 8,8.9 8.1,8.9 8.2,9 8.3,9 8.4,9.1 8.4,9.1 8.5,9.2 8.6,9.3 8.6,9.4 8.6,9.5 8.7,9.6 
		8.7,9.7 8.6,9.8 8.3,11.4 	"/>
	<polygon class="st1" points="7.6,10.6 7.6,10.6 7.6,10.6 7.6,10.6 7.5,10.6 7.5,10.6 7.5,10.6 7.4,10.6 7.4,10.6 7.3,10.6 
		7.3,10.6 7.2,10.6 7.2,10.6 7.1,10.6 7.1,10.6 7,10.6 7,10.6 7,10.6 7,10.7 6.9,10.7 6.9,10.7 6.9,10.7 6.8,10.7 6.8,10.7 
		6.7,10.8 6.7,10.8 6.7,10.8 6.6,10.9 6.6,10.9 6.6,10.9 6.5,11 6.5,11 6.5,11.1 6.5,11.2 6.5,11.3 6.5,11.3 6.6,11.4 6.6,11.4 
		6.7,11.4 6.7,11.4 6.8,11.4 6.9,11.4 7,11.4 7,11.4 7.1,11.4 7.2,11.4 7.2,11.3 7.3,11.3 7.3,11.3 7.4,11.2 7.4,11.2 7.4,11.2 
		7.5,11.1 7.5,11.1 7.5,11.1 7.5,11 7.5,11 7.5,10.9 7.6,10.8 7.6,10.7 7.6,10.6 7.6,10.6 	"/>
	<polygon class="st2" points="1.9,12.1 1.1,12.1 1.8,8.1 3.2,8.1 3.4,10.5 4.4,8.1 5.9,8.1 5.2,12.1 4.3,12.1 4.8,9.1 4.8,9.1 
		3.6,12.1 2.6,12.1 2.6,12 2.6,11.7 2.6,11.2 2.5,10.6 2.5,10.1 2.5,9.6 2.5,9.3 2.5,9.1 2.5,9.1 2.4,9.1 2.4,9.1 2.4,9.1 1.9,12.1 
		1.9,12.1 	"/>
	<polyline class="st3" points="1.9,12.1 1.1,12.1 1.8,8.1 3.2,8.1 3.4,10.5 4.4,8.1 5.9,8.1 5.2,12.1 4.3,12.1 4.8,9.1 4.8,9.1 
		3.6,12.1 2.6,12.1 2.6,12.1 2.6,12 2.6,11.7 2.6,11.2 2.5,10.6 2.5,10.1 2.5,9.6 2.5,9.3 2.5,9.1 2.5,9.1 2.5,9.1 2.4,9.1 2.4,9.1 
		2.4,9.1 1.9,12.1 	"/>
	<polygon class="st2" points="23.5,11.4 23.3,12.1 22.6,12.1 22.6,12 22.6,11.9 22.6,11.8 22.6,11.8 22.5,11.8 22.5,11.8 22.4,11.9 
		22.4,11.9 22.3,12 22.3,12 22.2,12 22.1,12.1 22,12.1 21.9,12.1 21.8,12.1 21.8,12.2 21.7,12.2 21.6,12.2 21.5,12.2 21.4,12.1 
		21.3,12.1 21.2,12.1 21.1,12 21,12 21,11.9 20.9,11.9 20.9,11.8 20.8,11.8 20.8,11.7 20.8,11.6 20.7,11.6 20.7,11.5 20.7,11.4 
		20.7,11.4 20.7,11.3 20.7,11.2 20.7,11.1 20.7,11 20.8,10.9 20.8,10.8 20.8,10.7 20.9,10.6 21,10.5 21,10.4 21.1,10.4 21.2,10.3 
		21.3,10.3 21.4,10.2 21.5,10.2 21.6,10.1 21.7,10.1 21.8,10.1 21.8,10.1 21.8,10.1 21.8,10.1 21.8,10.1 21.9,10.1 21.9,10.1 
		22,10.1 22,10.1 22.1,10 22.1,10 22.2,10 22.2,10 22.3,10 22.3,10 22.4,10 22.4,10 22.5,10 22.5,10 22.6,10 22.7,10 22.7,10 
		22.8,10 22.8,10 22.8,10 22.8,10 22.8,10 22.9,9.9 22.9,9.8 22.9,9.8 22.8,9.7 22.8,9.7 22.7,9.6 22.7,9.6 22.6,9.5 22.6,9.5 
		22.5,9.5 22.4,9.5 22.3,9.5 22.2,9.5 22.1,9.5 22,9.5 21.9,9.5 21.8,9.5 21.7,9.6 21.6,9.6 21.5,9.6 21.5,9.6 21.4,9.6 21.3,9.6 
		21.3,9.6 21.2,9.7 21.2,9.7 21.4,8.9 21.5,8.9 21.5,8.9 21.6,8.9 21.7,8.9 21.8,8.8 21.8,8.8 21.9,8.8 22,8.8 22.1,8.8 22.2,8.8 
		22.3,8.8 22.4,8.8 22.5,8.8 22.5,8.8 22.7,8.8 22.8,8.8 22.8,8.8 22.9,8.8 23,8.9 23.1,8.9 23.2,8.9 23.3,9 23.4,9 23.5,9.1 
		23.6,9.1 23.6,9.2 23.7,9.3 23.7,9.4 23.8,9.5 23.8,9.6 23.8,9.7 23.8,9.8 23.5,11.4 23.5,11.4 	"/>
	<polygon class="st2" points="23.3,12.1 23.4,12.1 23.5,11.4 23.4,11.4 23.3,12.1 23.3,12.1 23.3,12.1 23.4,12.1 23.4,12.1 
		23.3,12.1 23.3,12.1 	"/>
	<polygon class="st2" points="22.6,12.1 22.6,12.1 23.3,12.1 23.3,12.1 22.6,12.1 22.6,12.1 22.6,12.1 22.6,12.1 22.6,12.1 
		22.6,12.1 22.6,12.1 	"/>
	<polygon class="st2" points="22.6,11.8 22.6,11.7 22.6,11.8 22.6,11.9 22.6,12 22.6,12.1 22.6,12.1 22.6,12 22.6,11.9 22.6,11.8 
		22.6,11.8 22.6,11.7 22.6,11.8 22.6,11.8 	"/>
	<polygon class="st2" points="21.4,12.2 21.4,12.2 21.5,12.2 21.6,12.2 21.7,12.2 21.8,12.2 21.8,12.2 21.9,12.1 22,12.1 22.1,12.1 
		22.2,12.1 22.3,12 22.3,12 22.4,11.9 22.5,11.9 22.5,11.9 22.6,11.8 22.6,11.8 22.6,11.7 22.5,11.8 22.5,11.8 22.4,11.9 22.4,11.9 
		22.3,12 22.2,12 22.2,12 22.1,12.1 22,12.1 21.9,12.1 21.8,12.1 21.8,12.1 21.7,12.1 21.6,12.1 21.5,12.1 21.4,12.1 21.4,12.1 
		21.4,12.2 21.4,12.2 	"/>
	<polygon class="st2" points="20.7,11.2 20.7,11.2 20.7,11.3 20.7,11.4 20.7,11.4 20.7,11.5 20.7,11.6 20.8,11.6 20.8,11.7 
		20.8,11.8 20.9,11.8 20.9,11.9 21,12 21,12 21.1,12.1 21.2,12.1 21.3,12.1 21.4,12.2 21.4,12.1 21.3,12.1 21.2,12.1 21.1,12 
		21.1,12 21,11.9 20.9,11.9 20.9,11.8 20.8,11.8 20.8,11.7 20.8,11.6 20.8,11.6 20.7,11.5 20.7,11.4 20.7,11.4 20.7,11.3 20.7,11.2 
		20.7,11.2 20.7,11.2 20.7,11.2 	"/>
	<polygon class="st2" points="21.8,10.1 21.8,10.1 21.7,10.1 21.6,10.1 21.5,10.1 21.4,10.2 21.3,10.2 21.2,10.3 21.1,10.4 21,10.4 
		20.9,10.5 20.9,10.6 20.8,10.7 20.8,10.8 20.7,10.9 20.7,11 20.7,11.1 20.7,11.2 20.7,11.2 20.7,11.1 20.7,11 20.8,10.9 20.8,10.8 
		20.9,10.7 20.9,10.6 21,10.5 21,10.5 21.1,10.4 21.2,10.3 21.3,10.3 21.4,10.2 21.5,10.2 21.6,10.1 21.7,10.1 21.8,10.1 21.8,10.1 
		21.8,10.1 21.8,10.1 	"/>
	<polygon class="st2" points="22.4,10 22.4,10 22.4,10 22.3,10 22.3,10 22.2,10 22.2,10 22.1,10 22.1,10 22,10 22,10 21.9,10 
		21.9,10 21.8,10.1 21.8,10.1 21.8,10.1 21.8,10.1 21.8,10.1 21.8,10.1 21.8,10.1 21.8,10.1 21.8,10.1 21.8,10.1 21.9,10.1 
		21.9,10.1 22,10.1 22,10.1 22.1,10.1 22.1,10.1 22.2,10.1 22.2,10 22.3,10 22.3,10 22.4,10 22.4,10 22.4,10 22.4,10 22.4,10 	"/>
	<polygon class="st2" points="22.8,10 22.8,10 22.8,10 22.8,10 22.7,10 22.7,10 22.6,10 22.5,10 22.5,10 22.4,10 22.4,10 22.5,10 
		22.5,10 22.6,10 22.7,10 22.7,10 22.8,10.1 22.8,10.1 22.8,10.1 22.9,10 22.8,10.1 22.8,10.1 22.9,10 22.8,10 22.8,10 	"/>
	<polygon class="st2" points="22.8,9.8 22.8,9.8 22.8,9.9 22.8,10 22.8,10 22.8,10 22.9,10 22.9,10 22.9,10 22.9,9.9 22.9,9.8 
		22.9,9.8 22.8,9.8 22.8,9.8 	"/>
	<polygon class="st2" points="22.5,9.5 22.5,9.5 22.6,9.5 22.6,9.6 22.7,9.6 22.7,9.6 22.8,9.7 22.8,9.7 22.8,9.8 22.8,9.8 
		22.9,9.8 22.9,9.8 22.8,9.7 22.8,9.6 22.8,9.6 22.7,9.6 22.6,9.5 22.6,9.5 22.5,9.5 22.5,9.5 22.5,9.5 22.5,9.5 	"/>
	<polygon class="st2" points="21.2,9.7 21.2,9.7 21.2,9.7 21.3,9.7 21.3,9.6 21.4,9.6 21.5,9.6 21.5,9.6 21.6,9.6 21.7,9.6 
		21.8,9.6 21.9,9.5 22,9.5 22.1,9.5 22.2,9.5 22.3,9.5 22.4,9.5 22.5,9.5 22.5,9.5 22.4,9.5 22.3,9.5 22.2,9.5 22.1,9.5 22,9.5 
		21.9,9.5 21.8,9.5 21.7,9.5 21.6,9.5 21.5,9.6 21.5,9.6 21.4,9.6 21.3,9.6 21.3,9.6 21.2,9.6 21.2,9.7 21.2,9.7 21.2,9.7 21.2,9.7 
			"/>
	<polygon class="st2" points="21.4,8.9 21.4,8.9 21.2,9.7 21.2,9.7 21.4,9 21.4,9 21.4,8.9 21.4,8.9 21.4,8.9 21.4,8.9 21.4,8.9 	
		"/>
	<polygon class="st2" points="22.8,8.8 22.8,8.8 22.7,8.8 22.5,8.8 22.5,8.8 22.4,8.8 22.3,8.8 22.2,8.8 22.1,8.8 22,8.8 21.9,8.8 
		21.8,8.8 21.8,8.8 21.7,8.8 21.6,8.9 21.5,8.9 21.5,8.9 21.4,8.9 21.4,9 21.5,8.9 21.5,8.9 21.6,8.9 21.7,8.9 21.8,8.9 21.8,8.9 
		21.9,8.8 22,8.8 22.1,8.8 22.2,8.8 22.3,8.8 22.4,8.8 22.5,8.8 22.5,8.8 22.7,8.8 22.8,8.8 22.8,8.8 22.8,8.8 22.8,8.8 	"/>
	<polygon class="st2" points="23.8,9.8 23.8,9.8 23.8,9.7 23.8,9.6 23.8,9.5 23.8,9.4 23.7,9.3 23.7,9.2 23.6,9.1 23.5,9.1 23.4,9 
		23.3,8.9 23.2,8.9 23.1,8.9 23,8.8 22.9,8.8 22.8,8.8 22.8,8.8 22.8,8.8 22.8,8.8 22.9,8.8 23,8.9 23.1,8.9 23.2,8.9 23.3,9 
		23.4,9 23.5,9.1 23.6,9.2 23.6,9.2 23.7,9.3 23.7,9.4 23.8,9.5 23.8,9.6 23.8,9.7 23.8,9.8 23.8,9.8 23.8,9.8 23.8,9.8 	"/>
	<polygon class="st2" points="23.5,11.4 23.5,11.4 23.8,9.8 23.8,9.8 23.4,11.4 23.4,11.4 23.5,11.4 23.5,11.4 	"/>
	<polygon class="st0" points="22.7,10.6 22.7,10.6 22.7,10.6 22.7,10.6 22.7,10.6 22.6,10.6 22.6,10.6 22.5,10.6 22.5,10.6 
		22.4,10.6 22.4,10.6 22.3,10.6 22.3,10.6 22.3,10.6 22.2,10.6 22.2,10.6 22.1,10.6 22.1,10.6 22.1,10.6 22.1,10.7 22,10.7 22,10.7 
		22,10.7 21.9,10.7 21.9,10.8 21.8,10.8 21.8,10.8 21.8,10.8 21.7,10.9 21.7,10.9 21.7,11 21.7,11 21.7,11.1 21.7,11.2 21.7,11.3 
		21.7,11.3 21.7,11.4 21.8,11.4 21.8,11.4 21.9,11.4 21.9,11.4 22,11.4 22.1,11.4 22.2,11.4 22.3,11.4 22.3,11.4 22.4,11.3 
		22.4,11.3 22.5,11.3 22.5,11.2 22.6,11.2 22.6,11.2 22.6,11.1 22.6,11.1 22.7,11 22.7,11 22.7,11 22.7,10.9 22.7,10.8 22.7,10.7 
		22.7,10.6 22.7,10.6 	"/>
	<polygon class="st2" points="23.7,12.1 24.6,12.1 24.6,12.1 24.9,10.4 24.9,10.3 24.9,10.2 24.9,10.2 24.9,10.1 25,10 25,10 
		25,9.9 25.1,9.9 25.1,9.8 25.2,9.8 25.3,9.7 25.4,9.7 25.4,9.6 25.5,9.6 25.6,9.6 25.8,9.6 25.8,9.6 25.8,9.6 25.8,9.6 25.8,9.6 
		26,8.8 25.9,8.8 25.8,8.8 25.7,8.8 25.7,8.9 25.6,8.9 25.5,8.9 25.5,8.9 25.4,9 25.4,9 25.3,9.1 25.3,9.1 25.2,9.2 25.2,9.2 
		25.1,9.3 25.1,9.3 25,9.4 25.1,8.8 24.3,8.8 23.7,12.1 23.7,12.1 23.7,12.1 	"/>
	<polyline class="st3" points="23.7,12.1 24.6,12.1 24.6,12.1 24.9,10.4 24.9,10.4 24.9,10.3 24.9,10.2 24.9,10.2 24.9,10.1 25,10 
		25,10 25,9.9 25.1,9.9 25.1,9.8 25.2,9.8 25.3,9.7 25.4,9.7 25.4,9.6 25.5,9.6 25.6,9.6 25.8,9.6 25.8,9.6 25.8,9.6 25.8,9.6 
		25.8,9.6 25.8,9.6 26,8.8 26,8.8 25.9,8.8 25.8,8.8 25.7,8.8 25.7,8.9 25.6,8.9 25.5,8.9 25.5,8.9 25.4,9 25.4,9 25.3,9.1 
		25.3,9.1 25.2,9.2 25.2,9.2 25.1,9.3 25.1,9.3 25,9.4 25.1,8.8 24.3,8.8 23.7,12.1 23.7,12.1 	"/>
	<polygon class="st2" points="15.6,12.1 16.5,12.1 16.5,12.1 16.8,10.4 16.8,10.3 16.8,10.2 16.8,10.2 16.8,10.1 16.9,10.1 16.9,10 
		16.9,9.9 17,9.9 17,9.8 17.1,9.8 17.2,9.8 17.2,9.7 17.3,9.7 17.4,9.7 17.5,9.7 17.6,9.7 17.6,9.7 17.7,9.7 17.7,9.7 17.7,9.7 
		17.7,9.7 17.7,9.7 17.7,9.7 17.7,9.7 17.7,9.7 17.7,9.6 17.7,9.6 17.8,9.5 17.8,9.4 17.8,9.3 17.8,9.2 17.9,9.2 17.9,9.1 17.9,9 
		17.9,9 18,8.9 18,8.9 18,8.9 18,8.8 18,8.8 18,8.8 18,8.8 18,8.8 18,8.8 18,8.8 17.9,8.8 17.9,8.8 17.9,8.8 17.8,8.8 17.7,8.8 
		17.6,8.8 17.6,8.9 17.5,8.9 17.4,8.9 17.4,8.9 17.3,9 17.3,9 17.2,9.1 17.2,9.1 17.1,9.2 17.1,9.2 17,9.3 17,9.3 17,9.4 17.1,8.8 
		16.2,8.8 15.6,12.1 15.6,12.1 15.6,12.1 	"/>
	<polyline class="st3" points="15.6,12.1 16.5,12.1 16.5,12.1 16.8,10.4 16.8,10.4 16.8,10.3 16.8,10.2 16.8,10.2 16.8,10.1 
		16.9,10.1 16.9,10 16.9,9.9 17,9.9 17,9.8 17.1,9.8 17.2,9.8 17.2,9.7 17.3,9.7 17.4,9.7 17.5,9.7 17.6,9.7 17.6,9.7 17.6,9.7 
		17.7,9.7 17.7,9.7 17.7,9.7 17.7,9.7 17.7,9.7 17.7,9.7 17.7,9.7 17.7,9.7 17.7,9.7 17.7,9.6 17.7,9.6 17.8,9.5 17.8,9.4 17.8,9.3 
		17.8,9.2 17.9,9.2 17.9,9.2 17.9,9.1 17.9,9 17.9,9 18,8.9 18,8.9 18,8.9 18,8.8 18,8.8 18,8.8 18,8.8 18,8.8 18,8.8 18,8.8 
		18,8.8 17.9,8.8 17.9,8.8 17.9,8.8 17.9,8.8 17.8,8.8 17.7,8.8 17.6,8.8 17.6,8.9 17.5,8.9 17.4,8.9 17.4,8.9 17.3,9 17.3,9 
		17.2,9.1 17.2,9.1 17.1,9.2 17.1,9.2 17,9.3 17,9.3 17,9.4 17.1,8.8 16.2,8.8 15.6,12.1 15.6,12.1 	"/>
	<path class="st2" d="M15.7,9.8l0-0.2l0-0.2l-0.1-0.1l-0.1-0.1l-0.1-0.1L15.3,9l-0.1-0.1l-0.1-0.1l-0.1,0l-0.1,0l-0.1,0l-0.1,0
		l-0.1,0l-0.2,0l-0.2,0l-0.2,0.1L13.6,9l-0.2,0.1l-0.1,0.1l-0.1,0.1l-0.1,0.1L13,9.5L13,9.7l-0.1,0.1l0,0.1l0,0.1l0,0.1l0,0.1l0,0.1
		l0,0.2l0,0.2l0,0.2l0.1,0.2l0.1,0.2l0.1,0.1l0.1,0.1l0.1,0.1l0.1,0.1l0.1,0.1l0.1,0.1l0.1,0l0.2,0l0.2,0l0.2,0l0.1,0h0.1l0.1,0h0.1
		l0.1,0l0.1,0l0.1,0l0.1,0l0.1,0l0.1,0l0,0l0,0l0,0l0,0l0,0l0,0l0,0l0.1-0.8l-0.1,0.1l-0.1,0l-0.1,0l-0.1,0l-0.1,0l-0.1,0l-0.1,0
		l-0.1,0l-0.1,0l-0.1,0h-0.1l-0.1,0l-0.1,0l-0.1,0l-0.1,0l-0.1,0l-0.1,0l-0.1,0l-0.1,0l-0.1,0l-0.1,0l0,0l0,0l0-0.1l0-0.1l0-0.1
		l0-0.1l0-0.1l0-0.1l0-0.1l0-0.1l0,0h2l0-0.2l0-0.3l0-0.2L15.7,9.8z M14.9,10.1h-1.1l0,0l0,0l0,0l0-0.1l0-0.1l0-0.1l0-0.1l0-0.1l0,0
		l0,0l0,0l0,0l0,0l0,0l0.1,0l0.1,0l0.1,0l0.1,0l0.1,0l0.1,0l0.1,0l0,0l0,0l0,0l0,0l0,0l0,0l0,0l0,0l0,0.1l0,0.1l0,0.1l0,0.1
		L14.9,10.1L14.9,10.1z"/>
</g>
</svg>
