<?xml version="1.0" encoding="utf-8"?>
<!-- Generator: Adobe Illustrator 20.1.0, SVG Export Plug-In . SVG Version: 6.00 Build 0)  -->
<svg version="1.0" id="Isolation_Mode" xmlns="http://www.w3.org/2000/svg" xmlns:xlink="http://www.w3.org/1999/xlink" x="0px"
	 y="0px" viewBox="0 0 31 20" style="enable-background:new 0 0 31 20;" xml:space="preserve">
<style type="text/css">
	.st0{fill:none;stroke:#E7E7E7;stroke-miterlimit:10;}
	.st1{fill:#E7E7E7;}
</style>
<g id="XMLID_10_">
	<path id="XMLID_121_" class="st0" d="M29,19.4H2c-0.8,0-1.4-0.6-1.4-1.4V2.1c0-0.8,0.6-1.4,1.4-1.4H29c0.8,0,1.4,0.6,1.4,1.4V18
		C30.5,18.8,29.8,19.4,29,19.4"/>
	<rect id="XMLID_120_" x="0.5" y="2.9" class="st1" width="29.9" height="3.6"/>
	<path id="XMLID_119_" class="st1" d="M8.9,9.6H5.3C5,9.6,4.8,9.4,4.8,9.1S5,8.7,5.3,8.7h3.6c0.2,0,0.4,0.2,0.4,0.4S9.1,9.6,8.9,9.6
		"/>
	<path id="XMLID_118_" class="st1" d="M14.2,9.6h-3.6c-0.2,0-0.4-0.2-0.4-0.4s0.2-0.4,0.4-0.4h3.6c0.2,0,0.4,0.2,0.4,0.4
		S14.5,9.6,14.2,9.6"/>
	<path id="XMLID_117_" class="st1" d="M5.7,11.8H5.3c-0.2,0-0.4-0.2-0.4-0.4s0.2-0.4,0.4-0.4h0.4c0.2,0,0.4,0.2,0.4,0.4
		C6.2,11.6,6,11.8,5.7,11.8"/>
	<path id="XMLID_116_" class="st1" d="M8.4,11.8H7.5c-0.2,0-0.4-0.2-0.4-0.4s0.2-0.4,0.4-0.4h0.9c0.2,0,0.4,0.2,0.4,0.4
		C8.9,11.6,8.7,11.8,8.4,11.8"/>
	<path id="XMLID_115_" class="st1" d="M10.6,11.8h-0.4c-0.2,0-0.4-0.2-0.4-0.4s0.2-0.4,0.4-0.4h0.4c0.2,0,0.4,0.2,0.4,0.4
		C11.1,11.6,10.9,11.8,10.6,11.8"/>
	<path id="XMLID_114_" class="st1" d="M13.3,11.8h-0.9c-0.2,0-0.4-0.2-0.4-0.4s0.2-0.4,0.4-0.4h0.9c0.2,0,0.4,0.2,0.4,0.4
		C13.8,11.6,13.6,11.8,13.3,11.8"/>
	<path id="XMLID_113_" class="st1" d="M15.1,11.8c-0.1,0-0.2,0-0.3-0.1c-0.1-0.1-0.1-0.2-0.1-0.3c0-0.1,0-0.2,0.1-0.3
		c0.2-0.2,0.5-0.2,0.6,0c0.1,0.1,0.1,0.2,0.1,0.3c0,0.1,0,0.2-0.1,0.3C15.3,11.8,15.2,11.8,15.1,11.8"/>
	<path id="XMLID_112_" class="st1" d="M23.1,11.8h-0.4c-0.2,0-0.4-0.2-0.4-0.4s0.2-0.4,0.4-0.4h0.4c0.2,0,0.4,0.2,0.4,0.4
		C23.6,11.6,23.4,11.8,23.1,11.8"/>
	<path id="XMLID_111_" class="st1" d="M24.9,11.8c-0.1,0-0.2,0-0.3-0.1c-0.1-0.1-0.1-0.2-0.1-0.3s0-0.2,0.1-0.3
		c0.2-0.2,0.5-0.2,0.6,0c0.1,0.1,0.1,0.2,0.1,0.3c0,0.1,0,0.2-0.1,0.3C25.2,11.8,25,11.8,24.9,11.8"/>
	<path id="XMLID_110_" class="st1" d="M19.6,9.6H16c-0.2,0-0.4-0.2-0.4-0.4s0.2-0.4,0.4-0.4h3.6c0.2,0,0.4,0.2,0.4,0.4
		S19.8,9.6,19.6,9.6"/>
	<path id="XMLID_109_" class="st1" d="M24.9,9.6h-3.6c-0.2,0-0.4-0.2-0.4-0.4s0.2-0.4,0.4-0.4h3.6c0.2,0,0.4,0.2,0.4,0.4
		S25.2,9.6,24.9,9.6"/>
	<path id="XMLID_108_" class="st1" d="M19.1,11.8h-2.2c-0.2,0-0.4-0.2-0.4-0.4s0.2-0.4,0.4-0.4h2.2c0.2,0,0.4,0.2,0.4,0.4
		C19.6,11.6,19.4,11.8,19.1,11.8"/>
	<path id="XMLID_107_" class="st1" d="M20.9,11.8c-0.1,0-0.2,0-0.3-0.1c-0.1-0.1-0.1-0.2-0.1-0.3s0-0.2,0.1-0.3
		c0.2-0.2,0.5-0.2,0.6,0c0.1,0.1,0.1,0.2,0.1,0.3c0,0.1,0,0.2-0.1,0.3C21.1,11.8,21,11.8,20.9,11.8"/>
</g>
</svg>
