<?xml version="1.0" encoding="utf-8"?>
<!-- Generator: Adobe Illustrator 20.1.0, SVG Export Plug-In . SVG Version: 6.00 Build 0)  -->
<svg version="1.0" id="Layer_1" xmlns="http://www.w3.org/2000/svg" xmlns:xlink="http://www.w3.org/1999/xlink" x="0px" y="0px"
	 viewBox="0 0 130 40" style="enable-background:new 0 0 130 40;" xml:space="preserve">
<style type="text/css">
	.st0{fill:#FFFFFF;}
	.st1{fill:#D6A461;}
	.st2{font-family:'SFUIText-Medium';}
	.st3{font-size:8.4992px;}
</style>
<polygon class="st0" points="49.3,12.9 49.3,18.3 55.1,18.3 55.1,12.9 58.2,12.9 58.2,27.1 55.1,27.1 55.1,20.9 49.3,20.9 
	49.3,27.1 46.2,27.1 46.2,12.9 "/>
<path class="st0" d="M59.9,19.7c0.3-0.7,0.6-1.2,1.1-1.7c0.5-0.5,1-0.8,1.7-1.1c0.7-0.3,1.4-0.4,2.2-0.4c0.8,0,1.5,0.1,2.2,0.4
	c0.7,0.3,1.2,0.6,1.7,1.1c0.5,0.5,0.8,1,1.1,1.7c0.3,0.7,0.4,1.4,0.4,2.2c0,0.8-0.1,1.6-0.4,2.2c-0.3,0.7-0.6,1.2-1.1,1.7
	c-0.5,0.5-1,0.8-1.7,1.1c-0.7,0.3-1.4,0.4-2.2,0.4c-0.8,0-1.5-0.1-2.2-0.4c-0.7-0.3-1.2-0.6-1.7-1.1c-0.5-0.5-0.8-1-1.1-1.7
	c-0.3-0.7-0.4-1.4-0.4-2.2C59.6,21.1,59.7,20.4,59.9,19.7 M62.5,23.2c0.1,0.4,0.2,0.7,0.4,1.1c0.2,0.3,0.4,0.6,0.8,0.7
	c0.3,0.2,0.7,0.3,1.2,0.3s0.9-0.1,1.2-0.3c0.3-0.2,0.6-0.4,0.8-0.7c0.2-0.3,0.3-0.7,0.4-1.1c0.1-0.4,0.1-0.8,0.1-1.2
	c0-0.4,0-0.8-0.1-1.2c-0.1-0.4-0.2-0.8-0.4-1.1c-0.2-0.3-0.5-0.6-0.8-0.7c-0.3-0.2-0.7-0.3-1.2-0.3s-0.9,0.1-1.2,0.3
	c-0.3,0.2-0.6,0.4-0.8,0.7c-0.2,0.3-0.3,0.7-0.4,1.1c-0.1,0.4-0.1,0.8-0.1,1.2C62.4,22.4,62.4,22.8,62.5,23.2"/>
<path class="st0" d="M74.2,16.8v1.9h0c0.1-0.3,0.3-0.6,0.5-0.9c0.2-0.3,0.5-0.5,0.8-0.7c0.3-0.2,0.6-0.3,0.9-0.4
	c0.3-0.1,0.7-0.2,1-0.2c0.2,0,0.4,0,0.6,0.1v2.6c-0.1,0-0.3-0.1-0.5-0.1c-0.2,0-0.4,0-0.5,0c-0.5,0-1,0.1-1.3,0.3
	c-0.4,0.2-0.6,0.4-0.9,0.7c-0.2,0.3-0.4,0.6-0.5,1c-0.1,0.4-0.1,0.8-0.1,1.3v4.6h-2.8V16.8H74.2z"/>
<path class="st0" d="M78.4,19.7c0.3-0.7,0.6-1.2,1.1-1.7c0.5-0.5,1-0.8,1.7-1.1c0.7-0.3,1.4-0.4,2.2-0.4c0.8,0,1.5,0.1,2.2,0.4
	c0.7,0.3,1.2,0.6,1.7,1.1c0.5,0.5,0.8,1,1.1,1.7c0.3,0.7,0.4,1.4,0.4,2.2c0,0.8-0.1,1.6-0.4,2.2s-0.6,1.2-1.1,1.7
	c-0.5,0.5-1,0.8-1.7,1.1c-0.7,0.3-1.4,0.4-2.2,0.4c-0.8,0-1.5-0.1-2.2-0.4c-0.7-0.3-1.2-0.6-1.7-1.1c-0.5-0.5-0.8-1-1.1-1.7
	c-0.3-0.7-0.4-1.4-0.4-2.2C78,21.1,78.2,20.4,78.4,19.7 M81,23.2c0.1,0.4,0.2,0.7,0.4,1.1c0.2,0.3,0.4,0.6,0.8,0.7
	c0.3,0.2,0.7,0.3,1.2,0.3s0.9-0.1,1.2-0.3c0.3-0.2,0.6-0.4,0.8-0.7c0.2-0.3,0.3-0.7,0.4-1.1c0.1-0.4,0.1-0.8,0.1-1.2
	c0-0.4,0-0.8-0.1-1.2c-0.1-0.4-0.2-0.8-0.4-1.1c-0.2-0.3-0.5-0.6-0.8-0.7c-0.3-0.2-0.7-0.3-1.2-0.3s-0.9,0.1-1.2,0.3
	c-0.3,0.2-0.6,0.4-0.8,0.7c-0.2,0.3-0.3,0.7-0.4,1.1c-0.1,0.4-0.1,0.8-0.1,1.2C80.9,22.4,80.9,22.8,81,23.2"/>
<path class="st0" d="M92.4,24.5c0.1,0.2,0.3,0.4,0.5,0.5c0.2,0.1,0.4,0.2,0.7,0.3c0.3,0.1,0.5,0.1,0.8,0.1c0.2,0,0.4,0,0.6-0.1
	c0.2,0,0.4-0.1,0.6-0.2c0.2-0.1,0.3-0.2,0.4-0.4c0.1-0.2,0.2-0.4,0.2-0.6c0-0.4-0.3-0.7-0.8-1C94.8,23,94,22.8,93,22.6
	c-0.4-0.1-0.8-0.2-1.2-0.3c-0.4-0.1-0.7-0.3-1-0.5c-0.3-0.2-0.6-0.5-0.7-0.8c-0.2-0.3-0.3-0.7-0.3-1.1c0-0.7,0.1-1.2,0.4-1.6
	c0.3-0.4,0.6-0.8,1-1c0.4-0.2,0.9-0.4,1.4-0.5c0.5-0.1,1.1-0.1,1.6-0.1c0.6,0,1.1,0.1,1.6,0.2c0.5,0.1,1,0.3,1.4,0.5
	c0.4,0.3,0.8,0.6,1,1c0.3,0.4,0.4,0.9,0.5,1.6h-2.7c0-0.5-0.2-0.9-0.6-1.1c-0.4-0.2-0.8-0.3-1.3-0.3c-0.2,0-0.3,0-0.5,0
	c-0.2,0-0.4,0.1-0.5,0.1c-0.2,0.1-0.3,0.2-0.4,0.3c-0.1,0.1-0.2,0.3-0.2,0.5c0,0.3,0.1,0.5,0.3,0.6c0.2,0.2,0.4,0.3,0.7,0.4
	c0.3,0.1,0.6,0.2,1,0.3c0.4,0.1,0.8,0.2,1.2,0.3c0.4,0.1,0.8,0.2,1.2,0.3c0.4,0.1,0.7,0.3,1,0.5c0.3,0.2,0.6,0.5,0.7,0.8
	c0.2,0.3,0.3,0.7,0.3,1.2c0,0.7-0.1,1.2-0.4,1.7c-0.3,0.5-0.6,0.8-1.1,1.1c-0.4,0.3-0.9,0.5-1.5,0.6c-0.6,0.1-1.1,0.2-1.7,0.2
	c-0.6,0-1.2-0.1-1.8-0.2c-0.6-0.1-1.1-0.3-1.5-0.6c-0.4-0.3-0.8-0.6-1.1-1.1c-0.3-0.5-0.4-1-0.5-1.7h2.7
	C92.2,24,92.3,24.3,92.4,24.5"/>
<path class="st0" d="M103,12.9v5.4h0.1c0.4-0.6,0.8-1,1.4-1.3c0.6-0.3,1.1-0.4,1.6-0.4c0.8,0,1.4,0.1,1.9,0.3
	c0.5,0.2,0.9,0.5,1.1,0.9c0.3,0.4,0.5,0.8,0.6,1.3c0.1,0.5,0.2,1.1,0.2,1.7v6.3H107v-5.8c0-0.8-0.1-1.5-0.4-1.9
	c-0.3-0.4-0.7-0.6-1.4-0.6c-0.8,0-1.3,0.2-1.7,0.7c-0.3,0.5-0.5,1.2-0.5,2.3v5.4h-2.8V12.9H103z"/>
<rect x="111.5" y="12.9" class="st0" width="2.8" height="2.7"/>
<rect x="127.2" y="12.9" class="st0" width="2.8" height="2.7"/>
<polygon class="st0" points="119.2,12.9 119.2,20.5 122.7,16.8 126.1,16.8 122.2,20.6 126.5,27.1 123.1,27.1 120.3,22.5 119.2,23.5 
	119.2,27.1 116.3,27.1 116.3,12.9 "/>
<rect x="127.2" y="16.8" class="st0" width="2.8" height="10.3"/>
<rect x="111.5" y="16.8" class="st0" width="2.8" height="10.3"/>
<path class="st1" d="M10.8,30.1c-5.5,0-10-4.5-10-10c0-5.5,4.5-10,10-10c5.5,0,10,4.5,10,10C20.8,25.6,16.3,30.1,10.8,30.1
	 M10.8,13.8c-3.5,0-6.3,2.8-6.3,6.3c0,3.5,2.8,6.3,6.3,6.3c3.5,0,6.3-2.8,6.3-6.3C17,16.6,14.2,13.8,10.8,13.8"/>
<path class="st1" d="M10.8,6.3c-3.4,0-6.2-2-6.3-6.2H0.7c0,5.4,4.5,10,10,10c5.5,0,10-4.6,10-10H17C17,4.3,14.2,6.3,10.8,6.3"/>
<path class="st1" d="M10.8,33.9c3.4,0,6.2,3,6.3,6.2h3.8c0-5.6-4.5-10-10-10c-5.5,0-10,4.4-10,10h3.8C4.5,36.9,7.3,33.9,10.8,33.9"
	/>
<path class="st1" d="M30.8,30.1c-5.5,0-10-4.5-10-10c0-5.5,4.5-10,10-10c5.5,0,10,4.5,10,10C40.8,25.6,36.3,30.1,30.8,30.1
	 M30.8,13.8c-3.5,0-6.3,2.8-6.3,6.3c0,3.5,2.8,6.3,6.3,6.3c3.5,0,6.3-2.8,6.3-6.3C37.1,16.6,34.3,13.8,30.8,13.8"/>
<path class="st1" d="M30.8,6.3c-3.4,0-6.2-2-6.3-6.2h-3.8c0,5.4,4.5,10,10,10c5.5,0,10-4.6,10-10h-3.8C37,4.3,34.2,6.3,30.8,6.3"/>
<path class="st1" d="M30.8,33.9c3.4,0,6.2,3,6.3,6.2h3.8c0-5.6-4.5-10-10-10c-5.5,0-10,4.4-10,10h3.8C24.6,36.9,27.4,33.9,30.8,33.9
	"/>
<text transform="matrix(1 0 0 1 67.6191 36.6064)" class="st1 st2 st3">Sushi company</text>
</svg>
